<?xml version="1.0" encoding="UTF-8"?>
<svg version="1.1" xmlns="http://www.w3.org/2000/svg" width="800" height="800">
<path d="M0 0 C1.10581271 -0.00301597 2.21162543 -0.00603194 3.35094762 -0.0091393 C4.57320294 -0.00736983 5.79545827 -0.00560036 7.05475163 -0.00377727 C8.35278698 -0.0058299 9.65082233 -0.00788253 10.98819208 -0.00999737 C14.61470853 -0.01558204 18.24120145 -0.01488832 21.86772084 -0.01321978 C25.80424088 -0.01249077 29.74075417 -0.01750668 33.67727137 -0.0217948 C41.49542994 -0.0293883 49.3135817 -0.03156854 57.13174358 -0.03212385 C66.49189843 -0.03303616 75.85204693 -0.03969971 85.21219906 -0.04647068 C107.83760866 -0.06254648 130.4630176 -0.06843562 153.08843189 -0.07321942 C163.78682697 -0.07555366 174.4852215 -0.07915611 185.18361616 -0.0829148 C221.78875232 -0.09575133 258.39388818 -0.10647073 294.99902654 -0.1099174 C297.29777315 -0.11013904 299.59651976 -0.11036082 301.89526637 -0.11058275 C304.19963762 -0.1108034 306.50400887 -0.11102388 308.80838013 -0.1112442 C313.43152595 -0.11168676 318.05467176 -0.11213387 322.67781758 -0.11258388 C323.8240928 -0.11269327 324.97036802 -0.11280266 326.15137884 -0.11291536 C363.33179987 -0.11654719 400.51220141 -0.13247148 437.69261497 -0.15577424 C476.98077861 -0.18035312 516.26893112 -0.19408933 555.55710268 -0.19528532 C559.86737323 -0.19545678 564.17764378 -0.19567221 568.48791432 -0.19591975 C569.54926243 -0.19597552 570.61061054 -0.19603129 571.70412071 -0.19608875 C588.80686272 -0.19724086 605.90958478 -0.20827637 623.01232005 -0.22280681 C640.19270391 -0.23715117 657.37306211 -0.24042047 674.55345032 -0.23236683 C684.76779222 -0.2279009 694.98205149 -0.23180955 705.19638258 -0.24760534 C712.01380305 -0.25732467 718.83116535 -0.25620636 725.64858523 -0.24616911 C729.53663725 -0.240755 733.42453012 -0.24013753 737.31256923 -0.25267783 C741.49647828 -0.26606023 745.68001236 -0.25635536 749.86392522 -0.2442863 C751.07681588 -0.25188149 752.28970654 -0.25947669 753.53935146 -0.26730204 C761.24433674 -0.21897886 766.46269171 0.32227545 772.46102071 5.5026505 C777.70437281 11.61989462 778.85996017 16.44392404 778.84244847 24.34839559 C778.84552742 25.62685263 778.84552742 25.62685263 778.84866858 26.93113708 C778.85436294 29.81247206 778.85287833 32.69375959 778.8514626 35.57509923 C778.85404484 37.65159949 778.85705761 39.72809926 778.860466 41.80459833 C778.86855583 47.53070167 778.87032668 53.25679248 778.87106347 58.98290086 C778.87291058 65.15073222 778.88045617 71.31855704 778.88719869 77.48638463 C778.90150589 91.68615391 778.90731034 105.88591907 778.91189063 120.08569383 C778.91422556 127.10070188 778.91782809 134.11570912 778.92158601 141.13071653 C778.93442223 165.13770315 778.94514148 189.1446893 778.94858861 213.15167928 C778.94881024 214.65906289 778.94903203 216.1664465 778.94925396 217.67383011 C778.9494746 219.1848819 778.94969509 220.69593368 778.94991541 222.20698547 C778.95035797 225.23848319 778.95080508 228.26998091 778.95125508 231.30147862 C778.95136447 232.05311537 778.95147386 232.80475211 778.95158657 233.57916573 C778.95521781 257.95511379 778.97114 282.33103211 778.99444545 306.70696878 C779.01903286 332.47079171 779.03276094 358.23459763 779.03395653 383.99843264 C779.03412799 386.82581973 779.03434342 389.65320683 779.03459096 392.48059392 C779.03464673 393.1767903 779.0347025 393.87298668 779.03475996 394.59027992 C779.03591134 405.8016039 779.04694076 417.01289741 779.06147802 428.2242111 C779.07583335 439.48990195 779.07883263 450.75555421 779.07103804 462.02125522 C779.06712221 468.12633498 779.06810659 474.23131206 779.08209538 480.33637929 C779.09477833 485.9224961 779.09368625 491.50843249 779.08150467 497.09454885 C779.07953792 499.11812521 779.0826709 501.1417141 779.09134904 503.1652728 C779.10238337 505.91158267 779.09499449 508.65724923 779.08295751 511.40354085 C779.0905527 512.19288431 779.09814789 512.98222778 779.10597324 513.79549074 C779.04482669 520.23862829 777.64552194 524.8877017 773.33602071 529.8776505 C768.26336598 534.22564027 764.10949243 536.25169795 757.42204142 536.255301 C755.76332235 536.25982495 755.76332235 536.25982495 754.0710938 536.2644403 C752.84883847 536.26267083 751.62658315 536.26090136 750.36728978 536.25907826 C749.06925443 536.2611309 747.77121909 536.26318353 746.43384933 536.26529837 C742.80733288 536.27088304 739.18083996 536.27018932 735.55432058 536.26852078 C731.61780054 536.26779177 727.68128724 536.27280768 723.74477005 536.27709579 C715.92661147 536.2846893 708.10845972 536.28686954 700.29029784 536.28742485 C690.93014299 536.28833716 681.56999448 536.29500071 672.20984236 536.30177167 C649.58443276 536.31784748 626.95902381 536.32373662 604.33360953 536.32852042 C593.63521445 536.33085466 582.93681991 536.33445711 572.23842526 536.3382158 C535.6332891 536.35105233 499.02815324 536.36177173 462.42301488 536.3652184 C460.12426827 536.36544004 457.82552166 536.36566182 455.52677505 536.36588375 C453.22240379 536.36610439 450.91803254 536.36632488 448.61366129 536.3665452 C443.99051547 536.36698776 439.36736965 536.36743487 434.74422383 536.36788487 C433.59794862 536.36799427 432.4516734 536.36810366 431.27066257 536.36821636 C394.09024155 536.37184819 356.90984001 536.38777247 319.72942645 536.41107524 C280.4412628 536.43565412 241.1531103 536.44939032 201.86493874 536.45058632 C197.55466819 536.45075778 193.24439764 536.45097321 188.93412709 536.45122075 C187.87277899 536.45127652 186.81143088 536.45133229 185.71792071 536.45138975 C168.6151787 536.45254186 151.51245664 536.46357737 134.40972137 536.47810781 C117.22933751 536.49245217 100.0489793 536.49572147 82.8685911 536.48766783 C72.6542492 536.4832019 62.43998993 536.48711054 52.22565883 536.50290633 C45.40823837 536.51262567 38.59087606 536.51150736 31.77345619 536.50147011 C27.88540417 536.49605599 23.99751129 536.49543852 20.10947219 536.50797883 C15.92556314 536.52136123 11.74202905 536.51165636 7.5581162 536.4995873 C6.34522554 536.50718249 5.13233488 536.51477768 3.88268995 536.52260303 C-3.82229533 536.47427986 -9.04065029 535.93302555 -15.03897929 530.7526505 C-20.28233139 524.63540638 -21.43791875 519.81137696 -21.42040706 511.90690541 C-21.42245969 511.05460072 -21.42451232 510.20229602 -21.42662716 509.32416391 C-21.43232152 506.44282894 -21.43083692 503.56154141 -21.42942119 500.68020177 C-21.43200343 498.60370151 -21.43501619 496.52720174 -21.43842459 494.45070267 C-21.44651442 488.72459933 -21.44828526 482.99850852 -21.44902205 477.27240014 C-21.45086917 471.10456878 -21.45841475 464.93674396 -21.46515727 458.76891637 C-21.47946447 444.56914709 -21.48526893 430.36938193 -21.48984922 416.16960717 C-21.49218414 409.15459912 -21.49578667 402.13959188 -21.49954459 395.12458447 C-21.51238082 371.11759785 -21.52310006 347.11061169 -21.52654719 323.10362172 C-21.52676883 321.59623811 -21.52699061 320.0888545 -21.52721255 318.58147089 C-21.52743319 317.0704191 -21.52765367 315.55936731 -21.52787399 314.04831553 C-21.52831655 311.01681781 -21.52876366 307.98532009 -21.52921367 304.95382237 C-21.52932306 304.20218563 -21.52943245 303.45054888 -21.52954515 302.67613527 C-21.53317639 278.30018721 -21.54909858 253.92426889 -21.57240403 229.54833222 C-21.59699144 203.78450929 -21.61071952 178.02070336 -21.61191511 152.25686836 C-21.61208657 149.42948126 -21.612302 146.60209417 -21.61254954 143.77470708 C-21.61260531 143.0785107 -21.61266108 142.38231432 -21.61271854 141.66502108 C-21.61386993 130.4536971 -21.62489935 119.24240359 -21.6394366 108.0310899 C-21.65379193 96.76539905 -21.65679121 85.49974679 -21.64899662 74.23404577 C-21.64508079 68.12896602 -21.64606517 62.02398894 -21.66005397 55.91892171 C-21.67273691 50.3328049 -21.67164484 44.74686851 -21.65946326 39.16075215 C-21.65749651 37.13717579 -21.66062949 35.1135869 -21.66930762 33.0900282 C-21.68034196 30.34371832 -21.67295307 27.59805176 -21.66091609 24.85176015 C-21.66851128 24.06241668 -21.67610648 23.27307322 -21.68393183 22.45981026 C-21.62278527 16.0166727 -20.22348053 11.3675993 -15.91397929 6.3776505 C-10.84132456 2.02966073 -6.68745102 0.00360305 0 0 Z M47.71102071 40.1276505 C51.55626557 44.6137695 55.34025862 48.90166486 59.50933576 53.04901338 C60.0632919 53.60412336 60.61724804 54.15923334 61.18799073 54.73116484 C63.03391626 56.57972486 64.88336884 58.42471374 66.73284078 60.26972508 C68.07466783 61.61198849 69.416275 62.95447174 70.75768173 64.2971552 C74.43599238 67.97769827 78.11740775 71.65512202 81.79934311 75.33203852 C85.77245642 79.30082954 89.74267544 83.27251405 93.71324849 87.24384618 C100.59015831 94.1212801 107.4688953 100.99688211 114.34888005 107.8712399 C124.29615648 117.81038601 134.24066734 127.75229539 144.18450744 137.6948793 C160.31817995 153.8263637 176.45407933 169.95561813 192.5913918 186.08346105 C208.26639571 201.74927732 223.94034648 217.41614605 239.61287618 233.08443761 C240.33780361 233.80916776 240.33780361 233.80916776 241.07737605 234.54853892 C245.93081937 239.40066369 250.78424132 244.25280983 255.63764762 249.10497163 C296.32554239 289.78242926 337.01703856 330.45628276 377.71102071 371.1276505 C381.6881188 369.52474134 384.36232313 366.75378493 387.32570958 363.7618506 C387.88411153 363.20605593 388.44251347 362.65026127 389.01783669 362.07762435 C390.89806921 360.20371577 392.77105587 358.32272707 394.64418721 356.44172215 C396.0001486 355.08734823 397.35654753 353.73341225 398.71334743 352.37987834 C402.44854486 348.65111089 406.17745161 344.91610679 409.90538383 341.18007767 C413.92356931 337.15532777 417.94750047 333.13632972 421.9707253 329.11661839 C429.85379544 321.23859602 437.73150404 313.35523304 445.60742715 305.47006624 C454.77041732 296.29670725 463.93861691 287.12856225 473.10703608 277.96062989 C489.95298546 261.11519656 506.79364884 244.26448851 523.63185139 227.41131215 C539.01562785 212.01390573 554.40309985 196.62020262 569.79402852 181.22994542 C570.7825979 180.24141646 571.77116724 179.25288747 572.75973657 178.26435845 C573.24845868 177.7756567 573.73718078 177.28695494 574.24071265 176.78344404 C576.70068077 174.32357671 579.16064378 171.86370428 581.62060094 169.403826 C582.10587481 168.91856884 582.59114869 168.43331168 583.09112783 167.93334975 C598.69499578 152.32992485 614.29508326 136.72272109 629.89485903 121.11520506 C636.29215651 114.71488497 642.69043612 108.31554768 649.08901906 101.91651273 C656.87898442 94.12586691 664.66706633 86.33334383 672.45276502 78.53843396 C676.42916839 74.55739753 680.40637187 70.57716914 684.38571858 66.5990746 C688.02194555 62.96393642 691.65588259 59.3265259 695.28793141 55.68721325 C696.60859803 54.3647217 697.93012424 53.04308793 699.25255325 51.7223587 C701.03723352 49.93972003 702.81886429 48.15409091 704.5996964 46.36760926 C705.12477831 45.84458267 705.64986023 45.32155607 706.19085371 44.78268018 C708.63489032 42.79556052 708.63489032 42.79556052 709.71102071 40.1276505 C491.25102071 40.1276505 272.79102071 40.1276505 47.71102071 40.1276505 Z M18.71102071 69.1276505 C18.71102071 210.0376505 18.71102071 350.9476505 18.71102071 496.1276505 C256.31102071 496.1276505 493.91102071 496.1276505 738.71102071 496.1276505 C738.71102071 355.2176505 738.71102071 214.3076505 738.71102071 69.1276505 C734.15706088 73.03104464 729.81374565 76.88207738 725.6061852 81.11781812 C725.03122353 81.69252473 724.45626186 82.26723134 723.86387712 82.8593533 C721.94769928 84.77589042 720.03512586 86.69598334 718.12251973 88.61608434 C716.73162866 90.00868858 715.3405117 91.40106724 713.94918895 92.79324019 C710.13394889 96.61206118 706.32182663 100.43398125 702.51018715 104.25639558 C698.39611669 108.38096343 694.27910571 112.50259416 690.16239095 116.62452245 C683.03143773 123.76518057 675.90215479 130.90750272 668.77384114 138.05079579 C657.98579885 148.86122798 647.19309237 159.66699708 636.39925095 170.47163848 C632.06556873 174.80968962 627.73202046 179.14787458 623.39845204 183.4860394 C622.91703735 183.96796262 622.43562266 184.44988584 621.93961965 184.94641279 C610.48732084 196.4108381 599.03614327 207.87638302 587.58553243 219.34249425 C587.08466596 219.84403588 586.58379949 220.34557752 586.06775524 220.86231738 C574.37836654 232.56750266 562.69004663 244.27375345 551.00405049 255.98232579 C550.50119577 256.48615179 549.99834105 256.98997778 549.48024831 257.50907123 C545.42665582 261.57051089 541.37310068 265.63198781 537.3195553 269.69347449 C520.6085674 286.43714157 503.8925485 303.17577178 487.17071574 319.90860842 C476.4010101 330.68545155 465.63597435 341.466916 454.87779796 352.25526915 C447.8334899 359.31854844 440.78376377 366.37638926 433.72971833 373.42994381 C429.65822118 377.50150409 425.58923989 381.57550005 421.52676511 385.65606427 C417.80881174 389.39047619 414.08402397 393.11792575 410.35365063 396.83992998 C409.00454336 398.18846258 407.65798315 399.53954909 406.31422752 400.89341445 C404.48829446 402.73234635 402.65334057 404.56178585 400.81585622 406.38916516 C400.29558183 406.91760644 399.77530745 407.44604771 399.23926717 407.99050236 C393.40424779 413.74937688 387.32123636 417.25033757 378.96102071 417.3776505 C363.15672873 417.13130062 352.25482661 401.8152115 341.75934529 391.28950047 C340.36570991 389.89558466 338.97185217 388.50189113 337.57779294 387.10839921 C333.76914304 383.30004337 329.96360397 379.48859248 326.15857899 375.67661536 C322.04669574 371.55833523 317.93188774 367.44297922 313.81742024 363.32728124 C306.69619354 356.20317331 299.57674379 349.07729363 292.45845532 341.95024991 C282.16611098 331.64533888 271.87052601 321.34366979 261.57403804 311.04289926 C256.77309402 306.23994957 251.97231095 301.43683902 247.17157006 296.6336863 C246.69110813 296.15298336 246.2106462 295.67228042 245.71562482 295.17701072 C234.29490009 283.75048212 222.8757531 272.3223772 211.45687032 260.89400792 C210.95756279 260.39428675 210.45825527 259.89456558 209.94381722 259.37970135 C202.34532539 251.77491067 194.74691573 244.1700379 187.14852071 236.5651505 C179.0296736 228.43936874 170.9107919 220.31362155 162.79183125 212.18795323 C162.29142679 211.68713418 161.79102233 211.18631513 161.2754541 210.67031975 C149.857515 199.2429378 138.43912861 187.81600329 127.01933312 176.39047647 C126.53988542 175.91078777 126.06043771 175.43109906 125.56646129 174.93687434 C120.78129419 170.14932246 115.99604869 165.36184895 111.21068588 160.57449269 C100.46020091 149.81949288 89.71148696 139.06272936 78.96533412 128.30340094 C71.93729706 121.26696726 64.90751906 114.23227616 57.87634026 107.19898187 C53.81420107 103.13549185 49.75291401 99.07115893 45.69378209 95.00466466 C41.98491913 91.28909961 38.27380829 87.57579587 34.56082762 83.8643458 C33.21165176 82.51489641 31.86333929 81.16458318 30.51593726 79.81336265 C28.69742414 77.98993159 26.87592108 76.16954327 25.05357194 74.34994721 C24.25321007 73.54521605 24.25321007 73.54521605 23.43667927 72.7242277 C21.41832343 70.23325983 21.41832343 70.23325983 18.71102071 69.1276505 Z " fill="#F4FFF8" transform="translate(21.288979291915894,131.87234950065613)"/>
</svg>
