<?xml version="1.0" encoding="UTF-8"?>
<svg version="1.1" xmlns="http://www.w3.org/2000/svg" width="800" height="800">
<path d="M0 0 C3.0988631 0.00209099 6.19772179 0.00079098 9.29658508 -0.00043333 C16.68587988 -0.00335121 24.07516154 -0.00145894 31.46445465 0.00395441 C38.03640238 0.00871657 44.60832732 0.00883505 51.18027496 0.00395441 C87.40204984 -0.02220708 123.61714531 0.10502911 159.83603668 0.5874505 C160.60689354 0.59751297 161.3777504 0.60757543 162.17196655 0.61794281 C308.76723837 2.53284498 308.76723837 2.53284498 366.42978668 33.1343255 C367.0230777 33.44692316 367.61636871 33.75952082 368.22763824 34.08159113 C377.96391825 39.26354512 386.68614465 45.45407982 395.42978668 52.1343255 C396.81810699 53.18233332 396.81810699 53.18233332 398.23447418 54.251513 C401.86381818 57.02409383 405.34377919 59.74724411 408.42978668 63.1343255 C408.42978668 63.7943255 408.42978668 64.4543255 408.42978668 65.1343255 C409.38884918 65.536513 409.38884918 65.536513 410.36728668 65.9468255 C412.42978668 67.1343255 412.42978668 67.1343255 413.42978668 70.1343255 C414.41978668 70.4643255 415.40978668 70.7943255 416.42978668 71.1343255 C426.48899347 80.63320512 434.50652534 93.2878561 441.42978668 105.1343255 C442.09881012 106.25709894 442.76783356 107.37987238 443.45713043 108.53666925 C460.39816289 137.23046686 470.93360328 170.88253505 473.42978668 204.1343255 C473.5064859 205.06857355 473.58318512 206.0028216 473.66220856 206.96538019 C481.25359968 301.2692893 480.25566904 397.42743647 477.52158356 491.95274591 C477.42308636 495.36655124 477.32880284 498.78046119 477.23447418 502.1943841 C474.69690672 592.46505507 474.69690672 592.46505507 468.42978668 625.1343255 C468.17141022 626.51418634 468.17141022 626.51418634 467.90781403 627.92192316 C464.0313101 647.94873708 455.81115573 666.13568082 446.42978668 684.1343255 C445.94252106 685.13334894 445.45525543 686.13237238 444.95322418 687.16166925 C439.83457412 697.14959925 433.28101948 705.89381898 425.91025543 714.29448175 C424.32516057 716.10922815 422.77974193 717.95992978 421.28916168 719.8530755 C419.42978668 722.1343255 419.42978668 722.1343255 416.49228668 724.5718255 C413.36686008 727.03041599 413.36686008 727.03041599 410.99228668 730.0718255 C408.53929892 733.00344502 406.0286938 735.28381488 403.10556793 737.7124505 C401.27317606 739.22796425 401.27317606 739.22796425 399.11728668 741.4468255 C386.97211152 753.59200067 373.77899237 761.87532744 358.37949371 769.19780207 C356.5497022 770.07672522 354.73704715 770.99107439 352.92588043 771.907763 C302.92575022 796.60056474 245.65662384 796.64045187 191.18369293 797.689013 C190.10167665 797.70994894 189.01966038 797.73088488 187.90485573 797.75245523 C147.82968411 798.49085781 107.73834209 798.2840447 67.65823138 798.26289487 C58.46434145 798.25855242 49.27046524 798.26165739 40.07657617 798.266523 C31.06364208 798.27109588 22.0507138 798.27168568 13.03777891 798.26908433 C7.7151209 798.26754959 2.39247206 798.26724938 -2.93018532 798.27062082 C-32.57105098 798.28684051 -62.11770477 797.97979676 -91.69521332 795.8218255 C-92.58233002 795.757745 -93.46944672 795.69366449 -94.38344574 795.62764215 C-145.29722631 791.89055433 -195.03971132 780.80869495 -235.57021332 748.1343255 C-236.49962738 747.39569269 -237.42904144 746.65705988 -238.38661957 745.89604425 C-247.46898617 738.58214959 -256.10866074 731.11670408 -263.57021332 722.1343255 C-264.35267426 721.22811457 -265.13513519 720.32190363 -265.94130707 719.38823175 C-311.48442235 666.08129774 -318.50101633 598.60050024 -320.50887108 531.19104624 C-320.54972877 529.82114424 -320.59112616 528.45125824 -320.63306618 527.08138895 C-321.86926183 486.42167573 -321.72432369 445.7502568 -321.69878215 405.07655847 C-321.69500683 398.36135268 -321.69637643 391.64616162 -321.70058441 384.93095636 C-321.82354087 183.36853126 -321.82354087 183.36853126 -259.12880707 71.6499505 C-258.28447113 70.81979425 -257.44013519 69.989638 -256.57021332 69.1343255 C-255.67044769 68.21135675 -254.77068207 67.288388 -253.84365082 66.3374505 C-199.3798257 10.63730124 -124.02076419 2.67563359 -50.09365082 0.58793879 C-49.34998575 0.5666643 -48.60632069 0.54538981 -47.84012032 0.52347064 C-31.89274921 0.07611255 -15.95273552 -0.01430004 0 0 Z M-74.03578949 72.0237298 C-74.99936453 72.06261367 -75.96293958 72.10149755 -76.95571387 72.14155972 C-94.16268841 72.85743947 -111.43420131 73.89314087 -128.32021332 77.4468255 C-129.37313568 77.6641131 -130.42605804 77.8814007 -131.51088715 78.10527277 C-158.83572038 83.91172137 -181.18914708 95.15529211 -201.57021332 114.1343255 C-202.48544769 114.97866144 -203.40068207 115.82299738 -204.34365082 116.69291925 C-231.9372007 143.19839541 -244.89339513 179.22201519 -247.08193207 216.9612298 C-247.12487396 217.7002815 -247.16781586 218.43933319 -247.21205902 219.20078039 C-247.66186438 227.28545517 -247.87930708 235.37213707 -248.07021332 243.46635675 C-248.11101873 245.11111194 -248.15204048 246.75586177 -248.19326019 248.40060663 C-248.27903057 251.84704286 -248.3628933 255.29351806 -248.44521332 258.74003839 C-248.54652525 262.97980436 -248.65145417 267.21946973 -248.75770092 271.45911455 C-248.97663232 280.20579602 -249.18321566 288.95269902 -249.37903118 297.69992876 C-249.48422273 302.39231506 -249.59255795 307.08458174 -249.70830536 311.77672052 C-250.6788199 351.32587006 -250.75818738 390.86827543 -250.75532448 430.42688197 C-250.7556296 436.62137398 -250.76385487 442.81582281 -250.77602386 449.01030207 C-252.36289209 531.10127163 -252.36289209 531.10127163 -241.57021332 612.1343255 C-241.34446625 613.12384211 -241.34446625 613.12384211 -241.11415863 614.13334894 C-235.2537329 639.29566252 -224.50695734 661.38816163 -206.57021332 680.1343255 C-205.95919769 680.80850519 -205.34818207 681.48268488 -204.71865082 682.17729425 C-173.70624233 715.23520203 -125.52559593 723.778066 -82.43715668 726.24492121 C-81.71378801 726.28689335 -80.99041935 726.3288655 -80.24513042 726.37210953 C-57.67746507 727.63485222 -35.06710162 727.40830009 -12.47281384 727.37004495 C-6.03107405 727.36108195 0.4106646 727.36302549 6.85240936 727.3634057 C17.6767985 727.36247558 28.5011587 727.35394541 39.32553864 727.34013605 C50.3229397 727.3261143 61.32031599 727.31896334 72.31772614 727.31962824 C72.99302179 727.31966819 73.66831745 727.31970815 74.36407661 727.31974932 C75.03850537 727.31978967 75.71293414 727.31983003 76.40780014 727.3198716 C89.76261685 727.3206088 103.11742019 727.3135516 116.47223401 727.304425 C120.22808392 727.30233477 123.9839319 727.30158955 127.73978233 727.30118608 C159.52474011 727.29462109 191.28660793 726.95873242 223.06379128 726.25013399 C229.38678383 726.11067547 235.71017306 726.00141883 242.03384304 725.89784765 C286.75736776 724.96531036 331.00046937 711.35133714 363.80478668 680.1343255 C397.3061149 644.86200197 403.63340747 596.58039035 405.99228668 550.1343255 C406.05670959 548.87039972 406.12113251 547.60647394 406.18750763 546.30424738 C411.30917046 443.79149896 412.09657943 339.00810458 400.42978668 194.1343255 C400.25221832 193.1673675 400.07464996 192.20040949 399.89170074 191.20414972 C394.11621111 160.44786581 379.96729759 131.28833857 355.42978668 111.1343255 C354.85357574 110.5980755 354.27736481 110.0618255 353.68369293 109.5093255 C338.58672663 95.48375681 319.24846797 86.28961438 299.42978668 81.1343255 C298.20388824 80.79916925 296.97798981 80.464013 295.71494293 80.1187005 C276.1771743 74.89062619 256.59912734 73.11560423 236.42978668 72.1343255 C235.60704537 72.09285898 234.78430407 72.05139246 233.9366312 72.00866938 C207.5032296 70.73652748 181.03442696 70.96962927 154.57815909 70.96706843 C150.46576634 70.9665676 146.35337579 70.96426205 142.24098396 70.96157122 C128.5444007 70.95279744 114.84782515 70.94814623 101.15123906 70.94890169 C100.05222438 70.94896162 100.05222438 70.94896162 98.93100739 70.94902277 C97.8305829 70.94908409 97.8305829 70.94908409 96.70792762 70.94914665 C84.87287534 70.94955135 73.03785514 70.94001762 61.2028121 70.9258844 C48.92520527 70.9113436 36.64761389 70.90462387 24.36999828 70.90547818 C17.52778259 70.90580433 10.68560544 70.90311324 3.84339714 70.89230013 C-22.13319834 70.85419838 -48.07801407 70.94898968 -74.03578949 72.0237298 Z " fill="#F4FFF8" transform="translate(321.5702133178711,-0.13432550430297852)"/>
<path d="M0 0 C0.89460938 0.64195312 1.78921875 1.28390625 2.7109375 1.9453125 C47.47007855 34.72169138 79.06562467 81.9314923 87.8125 137.1875 C94.61948696 181.53337836 87.23504152 226.50016285 66 266 C65.47535156 267.01449219 64.95070313 268.02898437 64.41015625 269.07421875 C61.07401875 275.41907442 57.24359277 281.22906096 53 287 C52.29746094 287.97066406 51.59492187 288.94132812 50.87109375 289.94140625 C44.51850198 298.59197904 37.58256692 306.41743308 30 314 C29.09507812 315.175625 29.09507812 315.175625 28.171875 316.375 C24.3932863 320.94192734 19.6352067 324.33970453 15 328 C13.52660156 329.19689453 13.52660156 329.19689453 12.0234375 330.41796875 C-1.49457799 341.18104691 -16.37328765 349.69159562 -32 357 C-33.11246094 357.53238281 -34.22492188 358.06476563 -35.37109375 358.61328125 C-56.12509201 368.07358434 -80.21931755 373.46914316 -103 374 C-103.85255371 374.02046387 -104.70510742 374.04092773 -105.58349609 374.06201172 C-163.35908783 375.25315955 -215.52497947 356.06204884 -257.67578125 316.21875 C-268.56433914 305.75550142 -277.68272881 294.60436483 -286 282 C-286.57790283 281.12794922 -286.57790283 281.12794922 -287.16748047 280.23828125 C-299.54589598 261.36526023 -308.34014349 240.58526484 -313.875 218.75 C-314.16125244 217.6269043 -314.44750488 216.50380859 -314.74243164 215.34667969 C-318.40971613 200.16608395 -319.38308818 185.35378946 -319.3125 169.8125 C-319.31034485 168.95560577 -319.3081897 168.09871155 -319.30596924 167.21585083 C-319.1824842 136.57692987 -312.60689589 107.57858792 -299 80 C-298.69755371 79.38576172 -298.39510742 78.77152344 -298.08349609 78.13867188 C-289.98873525 61.86299405 -280.00992169 47.60640675 -268 34 C-267.20851563 33.07445312 -266.41703125 32.14890625 -265.6015625 31.1953125 C-261.56695402 26.51982759 -261.56695402 26.51982759 -260 25 C-259.34 25 -258.68 25 -258 25 C-257.73703125 24.40316406 -257.4740625 23.80632812 -257.203125 23.19140625 C-255.04151576 19.25418943 -251.44009475 16.81036485 -248 14 C-247.2562915 13.38995117 -247.2562915 13.38995117 -246.49755859 12.76757812 C-177.88160337 -43.22337412 -73.73539575 -53.89387108 0 0 Z M-216.625 81.75 C-231.37413667 98.73143844 -241.00227153 119.16781774 -246 141 C-246.34804688 142.46179688 -246.34804688 142.46179688 -246.703125 143.953125 C-251.49516931 165.72269771 -248.98743116 187.80005857 -243 209 C-242.57074219 210.53914063 -242.57074219 210.53914063 -242.1328125 212.109375 C-235.89075103 232.54798334 -223.79844791 249.88489486 -209 265 C-208.06220703 266.01320313 -208.06220703 266.01320313 -207.10546875 267.046875 C-187.16688017 288.1982731 -153.76119976 302.22521168 -124.90087891 303.38630676 C-121.495264 303.46626131 -118.09375413 303.46803485 -114.6875 303.4375 C-113.97176819 303.43479095 -113.25603638 303.43208191 -112.51861572 303.42929077 C-100.95121044 303.36315913 -90.10931018 302.34571405 -79 299 C-78.35015137 298.81808105 -77.70030273 298.63616211 -77.03076172 298.44873047 C-66.72795821 295.54839408 -57.37135736 291.07180365 -48 286 C-47.0615625 285.4946875 -46.123125 284.989375 -45.15625 284.46875 C-38.52038485 280.68882682 -32.77038437 275.9786909 -27 271 C-26.03707031 270.17242187 -25.07414063 269.34484375 -24.08203125 268.4921875 C-20.45463326 265.33729248 -20.45463326 265.33729248 -17 262 C-17 261.34 -17 260.68 -17 260 C-16.01 259.67 -15.02 259.34 -14 259 C0.79831359 241.85001642 10.50461946 221.82998692 16 200 C16.17934082 199.30358398 16.35868164 198.60716797 16.54345703 197.88964844 C21.20240359 179.02253416 20.75290745 157.79538797 16 139 C15.82259277 138.24799316 15.64518555 137.49598633 15.46240234 136.72119141 C12.91282881 126.14013687 9.11841747 116.54578596 4.125 106.875 C3.64361572 105.93962402 3.16223145 105.00424805 2.66625977 104.04052734 C-3.00899312 93.48502795 -10.86320562 84.72297854 -19 76 C-19.72058594 75.22527344 -20.44117188 74.45054687 -21.18359375 73.65234375 C-26.57613628 68.04832896 -32.39877539 63.14128108 -39 59 C-39.66 59 -40.32 59 -41 59 C-41 58.34 -41 57.68 -41 57 C-101.12343901 23.80603056 -168.57623047 30.83012649 -216.625 81.75 Z " fill="#F4FFF8" transform="translate(515,230)"/>
<path d="M0 0 C10.17850796 8.53010179 16.0642435 19.26378166 17.875 32.375 C18.62841348 41.77414193 17.23539538 49.59347898 13.875 58.375 C13.59785156 59.11492187 13.32070313 59.85484375 13.03515625 60.6171875 C8.36261532 71.34034594 -1.64019207 80.25122999 -12.3125 84.6875 C-23.882234 89.11726891 -38.68814208 89.19280353 -50.125 84.375 C-50.83527344 84.08882813 -51.54554688 83.80265625 -52.27734375 83.5078125 C-53.90738963 82.82997164 -55.51906755 82.10814308 -57.125 81.375 C-57.125 80.715 -57.125 80.055 -57.125 79.375 C-58.23681641 78.99601562 -58.23681641 78.99601562 -59.37109375 78.609375 C-62.31156978 77.2913744 -63.94984807 75.92048388 -66.1875 73.625 C-66.83847656 72.97015625 -67.48945312 72.3153125 -68.16015625 71.640625 C-72.24530103 66.93012008 -74.76950831 62.25262908 -76.8125 56.375 C-77.22886719 55.199375 -77.64523437 54.02375 -78.07421875 52.8125 C-82.14808 39.48537025 -80.28989399 26.55803104 -73.92871094 14.30175781 C-67.15512879 1.84085746 -56.50497447 -5.20156582 -43.125 -9.625 C-27.19676751 -12.92264188 -12.93872724 -9.65458546 0 0 Z " fill="#F4FFF8" transform="translate(644.125,147.625)"/>
</svg>
