<?xml version="1.0" encoding="UTF-8"?>
<svg version="1.1" xmlns="http://www.w3.org/2000/svg" width="800" height="800">
<path d="M0 0 C2.23218772 2.23218772 2.44777435 3.15168682 3.11328125 6.15625 C3.30631836 7.0033252 3.49935547 7.85040039 3.69824219 8.72314453 C3.90094727 9.63950684 4.10365234 10.55586914 4.3125 11.5 C5.82378823 18.08553279 7.38730784 24.62982503 9.25 31.125 C16.59865397 56.95790619 22.82156475 83.1380555 29.29101562 109.20068359 C30.49150105 114.03625744 31.6945829 118.871181 32.89874268 123.70584106 C33.37425131 125.61712683 33.848855 127.52863802 34.32244873 129.44039917 C36.81465015 139.50019282 39.38587889 149.52374908 42.19638062 159.4995575 C44.37756319 167.27220316 46.32061621 175.09925547 48.25 182.9375 C49.02141239 186.06300403 49.79488101 189.18799066 50.5703125 192.3125 C50.76660248 193.10345566 50.96289246 193.89441132 51.16513062 194.70933533 C52.60060243 200.46524299 54.09653969 206.20356774 55.6171875 211.9375 C56.04145373 213.54692671 56.46560905 215.15638265 56.88964844 216.76586914 C57.50119528 219.08609855 58.11622095 221.40507429 58.74328613 223.72116089 C59.32008608 225.85208372 59.88385715 227.9860855 60.4453125 230.12109375 C60.93281982 231.93758423 60.93281982 231.93758423 61.43017578 233.79077148 C61.99749444 236.98588875 61.9981172 238.93482093 61 242 C59.21484375 243.703125 59.21484375 243.703125 56.9375 245.25 C52.4924197 248.46664756 49.11555491 252.05814669 45.62890625 256.27734375 C44.82259766 257.13005859 44.82259766 257.13005859 44 258 C43.34 258 42.68 258 42 258 C41.72929687 258.72058594 41.45859375 259.44117188 41.1796875 260.18359375 C40.01362576 262.96746962 38.64241673 265.45615987 37.125 268.0625 C28.41187391 283.86968719 26.64870881 301.49123307 31 319 C33.89795558 328.88728438 37.58066168 338.20317037 43 347 C43.38285156 347.62519531 43.76570312 348.25039063 44.16015625 348.89453125 C45.53667441 351.04566799 46.94198817 352.94198817 48.75 354.75 C50 356 50 356 50 358 C50.66 358 51.32 358 52 358 C53.76228093 360.09063755 55.42103358 362.1924369 57.0625 364.375 C61.11346151 369.65374719 65.31304504 374.6739689 69.8203125 379.57421875 C72.13592892 382.15127574 74.32205066 384.80582391 76.5 387.5 C80.17537497 392.04433402 84.00485482 396.40601672 87.95703125 400.7109375 C94 407.48183556 94 407.48183556 94 410 C94.66 410 95.32 410 96 410 C97.58533702 411.71332754 99.09541215 413.49689047 100.5625 415.3125 C101.36816406 416.29863281 102.17382812 417.28476562 103.00390625 418.30078125 C105 421 105 421 106 424 C106.66 424 107.32 424 108 424 C109.60634015 425.73391951 111.1375287 427.538091 112.625 429.375 C113.44226563 430.37273437 114.25953125 431.37046875 115.1015625 432.3984375 C117 435 117 435 117 437 C117.58394531 437.2371875 118.16789062 437.474375 118.76953125 437.71875 C121.48432313 439.27821013 122.80389597 441.00432338 124.6875 443.5 C128.33467548 448.22553057 132.23298301 452.61358997 136.3125 456.96875 C138 459 138 459 138 461 C138.99 461.33 139.98 461.66 141 462 C142.58715791 463.71164088 144.09989386 465.49327819 145.5625 467.3125 C146.34753906 468.27800781 147.13257813 469.24351562 147.94140625 470.23828125 C149.604437 472.4693301 150.88710963 474.46742245 152 477 C152.66 477 153.32 477 154 477 C155.39325954 478.55240341 156.71380128 480.17029985 158 481.8125 C162.04909432 486.87712279 166.28832756 491.69075061 170.6796875 496.46484375 C172.57281203 498.53325758 174.42251704 500.62405876 176.25 502.75 C178.59303134 505.46001215 181.01165727 508.08503433 183.47265625 510.6875 C184.4167334 511.68765137 184.4167334 511.68765137 185.37988281 512.70800781 C186.6498317 514.0498285 187.92381085 515.38784838 189.20214844 516.72167969 C190.08628418 517.65608887 190.08628418 517.65608887 190.98828125 518.609375 C191.51977783 519.16592773 192.05127441 519.72248047 192.59887695 520.29589844 C194.0807018 522.09815274 195.03809141 523.88119743 196 526 C196.66 526 197.32 526 198 526 C199.36933879 527.55593001 200.66944657 529.17297341 201.9375 530.8125 C206.14243579 536.08051939 210.62930599 540.73321043 215.44921875 545.453125 C217.55245406 547.55313943 219.51573859 549.67440384 221.4375 551.9375 C224.94829495 556.06034637 228.77699197 559.83412295 232.65014648 563.61303711 C235.12637515 566.04686041 237.4640969 568.50366212 239.66015625 571.1953125 C241.48488308 573.38254766 243.06619305 575.05511207 245.3125 576.75 C246.199375 577.4925 247.08625 578.235 248 579 C248 579.66 248 580.32 248 581 C248.55816406 581.23460937 249.11632812 581.46921875 249.69140625 581.7109375 C252.56223665 583.31393925 254.57906997 585.33395368 256.9375 587.625 C273.0917749 602.53001097 289.37145455 606.81565524 310.71875 606.12744141 C326.6434914 605.23781009 343.52313699 596.81668263 355.67578125 586.79296875 C358 585 358 585 360 585 C360.33 584.34 360.66 583.68 361 583 C361.94617188 583.4846875 362.89234375 583.969375 363.8671875 584.46875 C371.18682096 588.18902471 378.54560935 591.75685495 386.0625 595.0625 C386.81394287 595.3929834 387.56538574 595.7234668 388.33959961 596.06396484 C389.08604736 596.39219238 389.83249512 596.72041992 390.6015625 597.05859375 C400.15618609 601.2620417 409.5396392 605.65038548 418.6640625 610.734375 C421.69501029 612.37656076 424.81529424 613.68219072 428 615 C429.8572971 615.84733831 431.71098088 616.70260949 433.5625 617.5625 C439.65233503 620.38616053 445.76154742 623.16538073 451.875 625.9375 C474.61142538 636.25855158 474.61142538 636.25855158 482 640 C490.36651725 644.23598878 498.95244499 648.05174882 507.4609375 651.9921875 C509.84903774 653.09878746 512.23706263 654.20554876 514.625 655.3125 C515.23168518 655.59361633 515.83837036 655.87473267 516.46343994 656.16436768 C525.23132732 660.22854135 533.96591253 664.3574804 542.67895508 668.5378418 C548.18201971 671.16642014 553.72679179 673.67749882 559.3125 676.125 C567.05749341 679.5213142 574.6192045 683.21710978 582.15136719 687.05957031 C585.09284767 688.55594945 588.04681294 690.02686454 591 691.5 C592.66666667 692.33333333 594.33333333 693.16666667 596 694 C581.8596423 708.44943655 565.03198078 721.16354511 548 732 C546.90558594 732.71414063 545.81117188 733.42828125 544.68359375 734.1640625 C536.25062226 739.66124265 527.67068621 744.887721 519 750 C518.25556641 750.44134277 517.51113281 750.88268555 516.74414062 751.33740234 C506.69544728 757.28531149 496.58996747 762.94022667 486.05859375 767.98779297 C483.88939938 769.05438214 481.75871509 770.18064358 479.625 771.31640625 C468.06022073 777.33048689 456.7702029 780.22482837 443.97021484 782.46923828 C439.2547158 783.31187308 434.56749415 784.2889289 429.875 785.25 C428.28946113 785.56969178 426.70354809 785.88753602 425.1171875 786.203125 C424.46347168 786.33364258 423.80975586 786.46416016 423.13623047 786.59863281 C404.91080897 790.02292915 385.30216458 788.52812001 367 786 C366.27264648 785.90348145 365.54529297 785.80696289 364.79589844 785.70751953 C340.68321931 782.41647928 316.28394698 775.79184451 294 766 C292.00343955 765.24089108 290.00340957 764.49084417 288 763.75 C275.47122263 758.94930621 263.50648774 752.84757794 251.59326172 746.703125 C249.50389735 745.62700731 247.41031092 744.55943814 245.31640625 743.4921875 C235.96984347 738.69904683 226.94590279 733.50132938 218 728 C216.86086186 727.30666785 215.72130637 726.61402086 214.58129883 725.92211914 C202.12770399 718.35164167 189.86737336 710.46177149 178 702 C176.52088626 700.97908998 175.0417167 699.95826084 173.5625 698.9375 C166.09278931 693.70752988 158.78490427 688.2524888 151.46142578 682.82080078 C149.05151857 681.03811004 146.63396926 679.26624666 144.21484375 677.49609375 C142.74717577 676.41436102 141.27971757 675.33234358 139.8125 674.25 C139.12333496 673.74895752 138.43416992 673.24791504 137.72412109 672.73168945 C136.1124176 671.5361174 134.5501689 670.27434574 133 669 C133 668.34 133 667.68 133 667 C132.28457031 666.7525 131.56914062 666.505 130.83203125 666.25 C127.68590294 664.86136405 125.36189037 663.15536054 122.6875 661 C121.80449219 660.29875 120.92148437 659.5975 120.01171875 658.875 C119.34785156 658.25625 118.68398438 657.6375 118 657 C118 656.34 118 655.68 118 655 C117.195625 654.731875 116.39125 654.46375 115.5625 654.1875 C114.716875 653.795625 113.87125 653.40375 113 653 C112.67 652.01 112.34 651.02 112 650 C110.08333333 648.83333333 110.08333333 648.83333333 108 648 C107.34 647.67 106.68 647.34 106 647 C106 646.34 106 645.68 106 645 C105.42765625 644.731875 104.8553125 644.46375 104.265625 644.1875 C101.92115366 642.95867364 99.87595062 641.57477824 97.75 640 C97.04359375 639.484375 96.3371875 638.96875 95.609375 638.4375 C94.81273437 637.7259375 94.81273437 637.7259375 94 637 C94 636.34 94 635.68 94 635 C93.44441406 634.76410156 92.88882813 634.52820313 92.31640625 634.28515625 C89.43624409 632.6872248 87.33630924 630.694995 84.9375 628.4375 C79.47521813 623.38415902 73.7975982 618.66590703 68 614 C64.11459761 610.85389194 60.49743166 607.57876728 57 604 C55.46155597 602.43432687 53.91961422 600.87208625 52.375 599.3125 C51.61960938 598.54550781 50.86421875 597.77851562 50.0859375 596.98828125 C47.96464641 594.85180231 47.96464641 594.85180231 45 593 C45 592.34 45 591.68 45 591 C44.43796875 590.7525 43.8759375 590.505 43.296875 590.25 C40.60907431 588.78725133 38.53594518 587.03195127 36.25 585 C35.45078125 584.29875 34.6515625 583.5975 33.828125 582.875 C32 581 32 581 32 579 C31.4112207 578.73574219 30.82244141 578.47148438 30.21582031 578.19921875 C27.91927416 576.95631056 26.39166834 575.64993519 24.546875 573.8125 C23.928125 573.19632813 23.309375 572.58015625 22.671875 571.9453125 C22.03765625 571.30335938 21.4034375 570.66140625 20.75 570 C20.1003125 569.35804688 19.450625 568.71609375 18.78125 568.0546875 C18.16765625 567.43851563 17.5540625 566.82234375 16.921875 566.1875 C16.36081055 565.62417969 15.79974609 565.06085937 15.22167969 564.48046875 C14 563 14 563 14 561 C13.34 561 12.68 561 12 561 C12 560.34 12 559.68 12 559 C11.34 559 10.68 559 10 559 C8.60400604 557.47162731 7.28412351 555.87349901 6 554.25 C5.19433594 553.24066406 4.38867188 552.23132813 3.55859375 551.19140625 C3.13690918 550.6617627 2.71522461 550.13211914 2.28076172 549.58642578 C0.25656129 547.07913367 -1.84783597 544.6402968 -3.9375 542.1875 C-12.02435849 532.49075765 -19.04199069 522.01041673 -26.15795898 511.59277344 C-28.29645017 508.46280364 -30.45708661 505.3561187 -32.6796875 502.28515625 C-34.4002416 499.8864915 -35.93961861 497.49354597 -37.3125 494.875 C-39.29876918 491.20993365 -41.42037288 487.66317958 -43.625 484.125 C-51.71993008 471.0356508 -59.34198715 457.76995306 -66.06152344 443.92089844 C-67.29853519 441.38895035 -68.5705771 438.87536946 -69.84204102 436.3605957 C-73.56175863 428.98947227 -77.17037456 421.56501751 -80.75 414.125 C-81.20995361 413.17423584 -81.66990723 412.22347168 -82.14379883 411.24389648 C-84.68004027 405.94924421 -87.01910441 400.63065169 -89.12646484 395.15039062 C-89.93911835 393.14987299 -90.8526177 391.2750746 -91.875 389.375 C-94.18029054 384.89896896 -95.84760919 380.19393641 -97.57763672 375.47583008 C-99.42981819 370.44938484 -101.42534242 365.50080162 -103.5 360.5625 C-108.2546949 349.18211027 -112.22757719 337.5335185 -116.04296875 325.80859375 C-116.74537105 323.74725801 -117.49599729 321.70219114 -118.2734375 319.66796875 C-120.59208047 313.52902347 -122.63168388 307.29094705 -124.70629883 301.06640625 C-125.42918157 298.89993029 -126.15684695 296.73510076 -126.88476562 294.5703125 C-129.47304964 286.83670712 -131.8978121 279.08601202 -134.0949707 271.22998047 C-134.93849195 268.21951752 -135.81572838 265.22200013 -136.7109375 262.2265625 C-140.87517203 248.24055477 -144.60239457 234.1909082 -148 220 C-148.26731934 218.89205078 -148.53463867 217.78410156 -148.81005859 216.64257812 C-149.63216437 213.22207425 -150.44314194 209.79913021 -151.25 206.375 C-151.4962915 205.3452002 -151.74258301 204.31540039 -151.99633789 203.25439453 C-155.01090594 190.27352913 -156.38524625 177.63881646 -156.3125 164.3125 C-156.31067719 163.61511719 -156.30885437 162.91773438 -156.30697632 162.19921875 C-156.18597954 134.60406993 -149.17098426 110.69480364 -135 87 C-134.48695313 86.12085937 -133.97390625 85.24171875 -133.4453125 84.3359375 C-132.35980835 82.51819978 -131.19051665 80.75075978 -130 79 C-129.34 79 -128.68 79 -128 79 C-127.76925781 78.46375 -127.53851563 77.9275 -127.30078125 77.375 C-118.00276617 60.39844394 -98.91948363 46.17890189 -83 36 C-82.13503906 35.43410156 -81.27007812 34.86820313 -80.37890625 34.28515625 C-55.75168716 18.32112912 -28.24723604 7.56367412 0 0 Z " fill="#F4FFF8" transform="translate(157,8)"/>
<path d="M0 0 C3.8904627 1.79267968 7.79123851 3.56134103 11.69482422 5.32519531 C25.30793315 11.48206717 38.89292157 17.70020917 52.46655273 23.94360352 C58.32318948 26.63251875 64.20439652 29.25785294 70.10498047 31.84863281 C76.11745643 34.49499466 82.00906223 37.30826666 87.8515625 40.31030273 C92.34036641 42.59299573 96.88661763 44.70951353 101.47998047 46.77441406 C102.72564724 47.33783649 103.97125209 47.90139584 105.21679688 48.46508789 C107.66604264 49.57296326 110.1211259 50.66180477 112.58300781 51.74194336 C120.01662058 55.1044208 126.79770366 58.82564117 132.60498047 64.66113281 C132.60498047 65.32113281 132.60498047 65.98113281 132.60498047 66.66113281 C133.26498047 66.66113281 133.92498047 66.66113281 134.60498047 66.66113281 C135.43886133 68.10734686 136.24577486 69.56911116 137.04248047 71.03613281 C137.72117187 72.25429688 137.72117187 72.25429688 138.41357422 73.49707031 C142.31349048 83.85422498 139.98439194 95.14158022 138.79248047 105.84863281 C138.61125749 107.55491932 138.43091322 109.26129939 138.25146484 110.96777344 C137.19584757 120.88857126 135.98350593 130.7799892 134.60498047 140.66113281 C130.68441543 139.41928595 127.01650829 137.99937122 123.32373047 136.19238281 C121.82966675 135.46668091 121.82966675 135.46668091 120.30541992 134.72631836 C118.72120239 133.95155151 118.72120239 133.95155151 117.10498047 133.16113281 C108.75695931 129.11147787 100.38023783 125.15279429 91.91748047 121.34863281 C85.0135425 118.24131463 78.22557105 115.00503955 71.47998047 111.56738281 C66.29759428 108.97618972 61.00430313 106.62009117 55.72998047 104.22363281 C48.9187355 101.12808854 42.14416656 98.00017176 35.47998047 94.59863281 C26.51166655 90.02544131 17.3218532 85.94693958 8.14648438 81.81005859 C-1.07280907 77.64233574 -10.18033582 73.28446191 -19.20507812 68.71142578 C-24.20261681 66.20239827 -29.2720402 63.90134162 -34.39501953 61.66113281 C-39.90394727 59.24806892 -45.3438099 56.75730053 -50.70751953 54.03613281 C-58.39502697 50.13732533 -66.1363857 46.35333351 -73.89501953 42.59863281 C-74.52749603 42.29216827 -75.15997253 41.98570374 -75.81161499 41.66995239 C-84.32304567 37.55097207 -92.87369627 33.58909541 -101.62158203 29.99316406 C-104.14272343 28.78230601 -105.62538482 27.78845964 -107.39501953 25.66113281 C-91.34105663 10.97647851 -91.34105663 10.97647851 -84.39501953 8.66113281 C-84.06501953 7.67113281 -83.73501953 6.68113281 -83.39501953 5.66113281 C-81.33251953 4.97363281 -81.33251953 4.97363281 -79.39501953 4.66113281 C-79.39501953 4.00113281 -79.39501953 3.34113281 -79.39501953 2.66113281 C-77.50820688 1.12438917 -75.6241287 -0.30547787 -73.64501953 -1.71386719 C-69.92905091 -4.3976223 -66.58747025 -7.0545982 -63.39501953 -10.33886719 C-44.83590395 -22.8662702 -17.41310933 -8.03836264 0 0 Z " fill="#F4FFF8" transform="translate(638.39501953125,544.3388671875)"/>
<path d="M0 0 C0.92506348 0.00491455 1.85012695 0.0098291 2.80322266 0.01489258 C10.45767243 0.14475318 17.51249259 1.15467251 24.875 3.3125 C26.12925781 3.67601562 27.38351563 4.03953125 28.67578125 4.4140625 C37.79888284 7.1965284 45.94431083 11.02537388 53.875 16.3125 C53.875 16.9725 53.875 17.6325 53.875 18.3125 C54.535 18.3125 55.195 18.3125 55.875 18.3125 C59.54866326 23.97865858 61.04180491 29.22927457 62.375 35.8125 C63.68257078 42.05276883 65.09113155 48.23101727 66.7578125 54.38671875 C69.11243346 63.08910652 71.18916944 71.84913575 73.25 80.625 C73.64887639 82.3160302 74.04788533 84.00702914 74.44702148 85.69799805 C76.88024939 96.01905869 79.27136167 106.34935521 81.63842773 116.68579102 C83.30228573 123.91710814 85.02902618 131.13212904 86.78686523 138.34106445 C87.46986384 141.14351252 88.1433409 143.94798455 88.80883789 146.75463867 C90.30673978 153.04505701 91.84378199 159.30527981 93.6363678 165.51914978 C100.29069482 188.62234004 100.29069482 188.62234004 96.94384766 196.05786133 C95.53827297 198.44746672 93.97660584 200.58951982 92.19042969 202.70800781 C90.77925211 204.42928826 89.58461045 206.21319129 88.3828125 208.0859375 C86.32832454 211.26033749 84.26327532 214.37422766 81.875 217.3125 C81.215 217.3125 80.555 217.3125 79.875 217.3125 C79.545 218.3025 79.215 219.2925 78.875 220.3125 C77.01502634 222.00931807 75.18424315 223.54278066 73.1875 225.0625 C72.61169189 225.50134521 72.03588379 225.94019043 71.44262695 226.39233398 C63.839135 232.01417931 53.63357773 239.19964343 43.875 238.3125 C37.96282597 233.08866522 36.63289455 226.00307979 34.625 218.625 C34.2421619 217.26074201 33.85843521 215.8967331 33.47387695 214.53295898 C27.91141858 194.65682569 22.94304576 174.61649728 17.94458008 154.59301758 C16.97156455 150.69645365 15.99454337 146.80090147 15.01693726 142.90548706 C9.69863843 121.7125093 4.42473459 100.51071412 -0.6884613 79.26727295 C-1.85683004 74.41570617 -3.03594476 69.56681559 -4.21875 64.71875 C-7.41433631 51.61172742 -10.58910035 38.50422401 -13.53271484 25.33764648 C-14.79224599 19.71250805 -16.14926308 14.12270268 -17.64453125 8.5546875 C-18.125 6.3125 -18.125 6.3125 -18.125 2.3125 C-11.96928671 0.52005912 -6.39904702 -0.04042613 0 0 Z " fill="#F4FFF8" transform="translate(199.125,0.6875)"/>
</svg>
